<svg xmlns="http://www.w3.org/2000/svg" width="256" height="256" viewBox="0 0 256 256">
  <g id="icon" transform="translate(-311 -145)">
    <rect id="Rectangle_1" data-name="Rectangle 1" width="256" height="256" transform="translate(311 145)" fill="none"/>
    <g id="svgg" transform="translate(313.259 187.256)">
      <path id="path0" d="M143.671.294c-2.845.229-6.161.61-8.225.946a17.863,17.863,0,0,0-3.427.688,8.2,8.2,0,0,1-1.285.322c-1.1.2-4.311.906-5.612,1.237-.495.126-.9.292-.9.369s-.073.1-.164.04a.559.559,0,0,0-.472.078c-.168.1-1.434.519-2.812.933s-2.65.836-2.827.938a31,31,0,0,1-3,1.2,7.433,7.433,0,0,0-1.2.555,4.08,4.08,0,0,1-.835.4c-.236.073-.912.354-1.5.624a9.31,9.31,0,0,1-1.2.49,1.841,1.841,0,0,0-.553.3,20.745,20.745,0,0,1-1.965,1.026,14.825,14.825,0,0,0-1.827.973c-.157.134-.331.2-.386.145s-.1-.011-.1.1a.19.19,0,0,1-.175.2,20.789,20.789,0,0,0-3.327,1.927,1.171,1.171,0,0,1-.514.3,4.463,4.463,0,0,0-1.038.6c-1.6,1.123-2.744,1.877-3.215,2.121-.258.134-.47.308-.47.386a.159.159,0,0,1-.171.143,1.043,1.043,0,0,0-.471.263c-.165.145-.652.519-1.082.832l-.783.568-.551-1.2a8.5,8.5,0,0,0-2.253-3.094c-.235-.151-.544-.352-.686-.446a7.825,7.825,0,0,0-9.748,1.077c-.434.457-.89.919-1.012,1.028-.257.227-.024-.011-3.76,3.848-5.958,6.153-8.783,9.056-11.567,11.885-1.579,1.6-2.87,2.948-2.87,2.986A16.483,16.483,0,0,1,60.5,36.361l-1.175,1.2H57.891c-3.576,0-10.784.885-11.419,1.4-.232.188-.257.188-.144,0s.064-.189-.181-.062c-.269.139-4.721,1.644-5.313,1.8a1.45,1.45,0,0,0-.445.256,1.292,1.292,0,0,1-1.654.054c-.2-.2-.36-.317-.36-.263s-.113,0-.251-.129c-.547-.494-.768-.655-.9-.656a5.577,5.577,0,0,1-1.036-.683,4.227,4.227,0,0,0-.9-.6,3.119,3.119,0,0,1-.784-.516,4.126,4.126,0,0,0-.936-.6,2.438,2.438,0,0,1-.715-.484,11.545,11.545,0,0,0-1.505-1.017,9.445,9.445,0,0,1-1.285-.848,17.262,17.262,0,0,0-1.628-1.118c-.707-.442-1.555-.993-1.885-1.225-1.8-1.267-5.007-3.361-5.14-3.361a.445.445,0,0,1-.291-.214,4.7,4.7,0,0,0-1.339-.985,9.152,9.152,0,0,1-1.164-.725c-2.719-1.859-5.374-2.22-7.772-1.056-.983.477-2.8,2-2.8,2.352a1.238,1.238,0,0,1-.317.532A6.531,6.531,0,0,0,7.1,34.25a16.759,16.759,0,0,1,.682,2.37c1.935,8.4,6.074,15.685,10.686,18.8a14.456,14.456,0,0,0,3.591,1.851c.283,0,.273.334-.021.672-1.09,1.257-4.615,7.411-7.858,13.722a31.445,31.445,0,0,1-2.091,3.684,7.118,7.118,0,0,0-.964,1.616c-.325.7-.761,1.587-.969,1.97s-.659,1.275-1,1.983-.8,1.632-1.028,2.056S7.4,84.358,7.006,85.112A19.84,19.84,0,0,1,5.918,87c-.208.283-.674,1.054-1.036,1.714a18.729,18.729,0,0,1-1.114,1.8,15.542,15.542,0,0,0-.9,1.371,9.322,9.322,0,0,1-.845,1.23A22.664,22.664,0,0,0,.449,95.245c-.06.107.249.531.687.943s1,.947,1.24,1.191a11.9,11.9,0,0,0,1.126.942c.376.274.992.784,1.371,1.132a18.678,18.678,0,0,0,1.546,1.237c2.151,1.517,4.768,3.294,5.19,3.526.256.139.847.487,1.314.771a19.871,19.871,0,0,0,2.557,1.394l1.009.476-.666.563a2.879,2.879,0,0,1-.854.566,2.577,2.577,0,0,0-.805.6,3.631,3.631,0,0,1-.718.6,27.752,27.752,0,0,0-3.171,2.181,1.76,1.76,0,0,1-.555.389A4.2,4.2,0,0,0,8.127,113c-.056.163-.155.289-.22.279-.3-.043-.543.037-.5.168A5.326,5.326,0,0,1,6.248,114.6c-3.244,2.741-4.019,3.937-3.524,5.437a5.5,5.5,0,0,0,3.316,2.586c3.772.875,6.32.178,11.236-3.075s6.441-5.153,6.441-8.005a6.073,6.073,0,0,1,.117-1.67c.065,0,.8.259,1.632.577a76.209,76.209,0,0,0,15.993,3.616c1.272.147,2.622.313,3,.367a32.642,32.642,0,0,0,6.083.42,91.949,91.949,0,0,0,14.222-1.2c1.743-.3,2.271-.322,1.617-.071-.483.185-.791.45-2.964,2.543a11.2,11.2,0,0,0-2.351,2.741,7.292,7.292,0,0,1-.593.943,1.114,1.114,0,0,0-.211.428c-.057.188-.22.651-.363,1.028a5.346,5.346,0,0,0,2.807,6.694c.519.242,1.06.5,1.2.573a1.063,1.063,0,0,0,.558.09c.165-.025.263.018.216.093-.344.556,5.457.418,7.365-.176a41.741,41.741,0,0,0,5.109-1.78,3.8,3.8,0,0,1,.888-.479c.377-.154,1.264-.593,1.971-.975s2.018-1.058,2.913-1.5a11.388,11.388,0,0,0,1.754-.986c.077-.112.127-.116.131-.011s.056.1.131-.014a13.264,13.264,0,0,1,1.925-1.091,57.165,57.165,0,0,1,5.165-2.512.979.979,0,0,0,.428-.267,17.318,17.318,0,0,1,2.117-1.177c4-1.984,4.736-2.344,5.269-2.576.306-.133.557-.287.557-.341a10.226,10.226,0,0,1,1.67-.845,19.228,19.228,0,0,0,1.928-.947c.141-.111,1.915-1.022,3.941-2.027s3.955-1.976,4.284-2.16,2.065-1.047,3.855-1.918,3.294-1.638,3.342-1.7a7.316,7.316,0,0,1,1.416-.661c.022,0,2.7-1.339,5.952-2.968s6.529-3.252,7.282-3.6,1.564-.755,1.8-.892,1.046-.533,1.8-.879a11.1,11.1,0,0,0,1.456-.743,5.744,5.744,0,0,1,1.071-.521c1.2-.492,1.2-.487.09-1.591-15.6-15.54-15.905-42.639-.655-57.226,3.441-3.291,10.821-8.011,11.9-7.607.105.04-.03.16-.3.268-4.345,1.726-10.772,8.855-14.131,15.674-8.185,16.616-3.517,33.589,12.183,44.308,1.613,1.1,1.678.857-.522,1.96-1.018.511-2.245,1.161-2.727,1.445s-.933.464-1,.4-.08-.03-.021.073-.176.413-.522.686a20.443,20.443,0,0,0-3.36,3.481,7.931,7.931,0,0,1-.876,1.113,7.866,7.866,0,0,0-1.2,2.242c-.158.377-.435,1.014-.615,1.416-1.763,3.925.171,9.88,3.439,10.582l1.114.244a12.332,12.332,0,0,0,4.455-.133c1.062-.338,3.087-.954,3.17-.965a1.182,1.182,0,0,0,.3-.147c.118-.075.215-.073.217,0s.06.05.129-.057a6.353,6.353,0,0,1,1.668-.651,20.881,20.881,0,0,0,3.551-1.228,2.726,2.726,0,0,1,.6-.261,4.366,4.366,0,0,0,.71-.25,3.453,3.453,0,0,1,.739-.241,35.9,35.9,0,0,0,3.85-1.312c.3-.139,1.492-.589,2.656-1a81.193,81.193,0,0,0,7.654-2.849,10.884,10.884,0,0,1,1.97-.761c1.054-.344,2.417-.855,3.03-1.136s1.692-.706,2.4-.945,1.67-.611,2.142-.828a23.191,23.191,0,0,1,3.183-1.279,5.143,5.143,0,0,0,1.076-.443c.485-.244.9-.44.921-.435s.446-.181.943-.412a5.842,5.842,0,0,1,1.085-.422,4.031,4.031,0,0,0,.892-.345,3.6,3.6,0,0,1,.951-.342,1.576,1.576,0,0,0,.678-.343,1.9,1.9,0,0,1,.556-.343c.188,0,4.068-1.579,4.452-1.811.188-.114,1.229-.578,2.313-1.029s2.2-.961,2.485-1.132a2.241,2.241,0,0,1,.715-.311,32.134,32.134,0,0,0,5.978-3.172,35.756,35.756,0,0,0,4.358-4.107,1.371,1.371,0,0,1,.316-.442,4.346,4.346,0,0,0,.556-.807,4.976,4.976,0,0,1,.413-.676,7.62,7.62,0,0,0,1.14-1.935,11.993,11.993,0,0,0,1.095-2.912c.016-.141.232-.951.479-1.8,1.319-4.529,1.678-7.574,1.676-14.2,0-5.143.041-5.317.769-3.171a42.135,42.135,0,0,1,2.05,16.959c-.158,1.517-.445,3.614-.541,3.949-.057.2.189.413.867.756a2.933,2.933,0,0,1,.947.618c0,.077.212.249.471.384.875.455,3.984,3.42,3.984,3.8a.76.76,0,0,0,.169.3,9.783,9.783,0,0,1,2.231,8.686,12.2,12.2,0,0,1-1.445,3.759,1.1,1.1,0,0,0-.269.42,1.507,1.507,0,0,1-.362.5,7.994,7.994,0,0,0-.747.978,10.213,10.213,0,0,1-1.458,1.542c-.59.518-1.159,1.021-1.267,1.116a8.515,8.515,0,0,1-1.8,1.283.458.458,0,0,0-.318.22,8.557,8.557,0,0,1-2,1.322,5.335,5.335,0,0,0-.927.563,14.158,14.158,0,0,1-1.926,1.056c-.613.271-1.345.635-1.628.808a17.545,17.545,0,0,1-2.57,1.2c-.471.2-1.242.538-1.713.76a40.343,40.343,0,0,1-4.61,1.786.719.719,0,0,0-.449.261c-.119.144-.257.222-.305.173s-.173-.02-.275.064a3.145,3.145,0,0,1-.787.329c-.762.225-2.84.959-3.513,1.24a1.97,1.97,0,0,1-.715.183.317.317,0,0,0-.3.125,9.32,9.32,0,0,1-1.855.707c-.967.3-2.018.666-2.336.808a4.946,4.946,0,0,1-.771.288,1.171,1.171,0,0,0-.364.134c-.094.058-.981.347-1.971.643s-1.925.607-2.078.693a3.941,3.941,0,0,1-.9.271,1.528,1.528,0,0,0-.718.271.186.186,0,0,1-.256.057c-.087-.055-.16-.017-.16.082a.205.205,0,0,1-.222.181,50.926,50.926,0,0,0-5.176,1.682c-.188.107-1.344.518-2.569.912a19.972,19.972,0,0,0-2.314.833,8.981,8.981,0,0,1-1.456.6c-.754.265-1.91.707-2.57.982s-1.276.522-1.37.549-.48.19-.857.362a6.063,6.063,0,0,1-.983.366,23.021,23.021,0,0,0-2.228.978c-1.061.507-2.508,1.172-3.215,1.478a11.281,11.281,0,0,0-1.542.765,17.918,17.918,0,0,1-1.8.963,13.649,13.649,0,0,0-1.773.974,3.63,3.63,0,0,1-.771.474,9.416,9.416,0,0,0-1.054.6,4.8,4.8,0,0,1-.814.449c-.165.057-.3.163-.3.236a5.233,5.233,0,0,1-1.2.842,13.762,13.762,0,0,0-1.842,1.3,2.808,2.808,0,0,1-.82.594,1.594,1.594,0,0,0-.6.387c-.235.212-.735.646-1.112.966a41.559,41.559,0,0,0-5.942,6.027A24.154,24.154,0,0,0,143.15,145a10.529,10.529,0,0,1-1,1.754c-.106.069-.139.127-.073.128s-.079.447-.32.988a25.422,25.422,0,0,0-.919,2.65c-.264.916-.52,1.731-.57,1.811a30.9,30.9,0,0,0-.9,6.72c-.127,2.967.162,5.008.891,6.294a11.358,11.358,0,0,0,2.2,3.131c.375.33.8.718.953.863,3.338,3.239,11.39,2.526,14.589-1.291a9.669,9.669,0,0,0,1.267-1.885,12.788,12.788,0,0,1,.636-1.138,10.241,10.241,0,0,0,.816-3.982c0-1.708.7-4.9,1.069-4.9.082,0,.1-.077.044-.171s-.042-.171.035-.171a2.339,2.339,0,0,0,.548-.857,2.411,2.411,0,0,1,.543-.857c.075,0,.182-.144.238-.32.241-.761,3.331-3.629,5.062-4.7a12.035,12.035,0,0,0,1.289-.876,9.28,9.28,0,0,1,2.047-1.2,11.267,11.267,0,0,0,1.315-.769,19.251,19.251,0,0,1,2.233-1.087,14.8,14.8,0,0,0,2.03-.991,23.954,23.954,0,0,1,3.647-1.476,6.465,6.465,0,0,0,1.029-.476,18.73,18.73,0,0,1,2.26-.867,18,18,0,0,0,2.27-.876c.212-.136.386-.2.386-.137s.1.035.214-.059a17.393,17.393,0,0,1,2.185-.8c1.084-.348,2.086-.679,2.228-.737a2.106,2.106,0,0,1,.377-.119.869.869,0,0,0,.334-.229.752.752,0,0,1,.437-.214c.122,0,1.38-.386,2.793-.857s2.686-.857,2.827-.857.257-.077.257-.171a.187.187,0,0,1,.2-.171,51.956,51.956,0,0,0,5.371-1.784,2.488,2.488,0,0,1,.695-.272c.1,0,.986-.273,1.971-.6s1.981-.645,2.214-.7a1.051,1.051,0,0,0,.514-.231,18.835,18.835,0,0,1,2.484-.946c1.317-.443,2.589-.913,2.827-1.044a43.41,43.41,0,0,1,4.2-1.621.949.949,0,0,0,.419-.23,4.857,4.857,0,0,1,1.042-.528c1.389-.536,7.155-3.29,7.368-3.519a4.543,4.543,0,0,1,.685-.387,22.422,22.422,0,0,0,3.067-1.807,3.676,3.676,0,0,1,.925-.553,3.434,3.434,0,0,0,.9-.6,4.015,4.015,0,0,1,.874-.6,18.018,18.018,0,0,0,2.751-2.052,2.406,2.406,0,0,1,.7-.514,6.725,6.725,0,0,0,1.185-.985c.571-.542,1.259-1.186,1.528-1.43a38.148,38.148,0,0,0,6.751-8.784c.206-.437.443-.8.526-.8s.153-.113.153-.252a2.487,2.487,0,0,1,.318-.818,16.475,16.475,0,0,0,.8-1.933,16.094,16.094,0,0,1,.593-1.539c1.119-1.659,1.945-10.37,1.389-14.65-.307-2.363-1.07-5.576-1.383-5.826a13.256,13.256,0,0,1-.685-1.714,12.083,12.083,0,0,0-1.431-3.084,16.247,16.247,0,0,1-.8-1.422,11.609,11.609,0,0,0-.857-1.463,8.157,8.157,0,0,1-1.028-1.484c0-.106-.213-.38-.772-.993-.19-.207-.652-.762-1.029-1.233a53.888,53.888,0,0,0-4.858-4.854c-.333-.252-.88-.709-1.215-1.015a2.748,2.748,0,0,0-.762-.557,3.424,3.424,0,0,1-.857-.571,19.309,19.309,0,0,0-1.988-1.314c-.707-.409-1.61-.951-2.007-1.2a15.987,15.987,0,0,0-2.184-1.031,5.852,5.852,0,0,1-1.463-.7,40.048,40.048,0,0,0-5.141-1.7,4.29,4.29,0,0,1-.943-.328,7.5,7.5,0,0,0-1.5-.35l-1.328-.221-.012-1.046a16.891,16.891,0,0,0-.377-3.531c-.05-.142-.22-1.029-.377-1.971s-.513-2.523-.791-3.513-.548-1.99-.6-2.224a1.031,1.031,0,0,0-.234-.514,1.8,1.8,0,0,1-.318-.689,29.2,29.2,0,0,0-1.571-4.027c-.359-.754-.9-1.91-1.215-2.57a9.128,9.128,0,0,0-.679-1.285,9.523,9.523,0,0,1-.705-1.285,30.187,30.187,0,0,0-1.568-2.683,11.358,11.358,0,0,1-.978-1.652c0-.093-.116-.214-.257-.268a.378.378,0,0,1-.257-.283,1.706,1.706,0,0,0-.428-.646,1.841,1.841,0,0,1-.428-.61,8.861,8.861,0,0,0-1.292-1.74c-.1-.095-.525-.634-.943-1.2a17.494,17.494,0,0,0-1.1-1.376c-.19-.192-.637-.693-.994-1.114a72.282,72.282,0,0,0-7.148-6.939c-.425-.335-1.068-.856-1.431-1.159s-.979-.759-1.371-1.014a14.027,14.027,0,0,1-1.736-1.288,12.92,12.92,0,0,0-1.314-.842,13.13,13.13,0,0,1-1.173-.733,6.748,6.748,0,0,0-1.542-.889,14.171,14.171,0,0,1-1.5-.852,22.755,22.755,0,0,0-3.6-1.781c-.212-.063-.386-.191-.386-.284s-.077-.122-.171-.063-.171.037-.171-.047-.251-.236-.557-.337c-1.3-.429-4.512-1.639-4.669-1.759a24.144,24.144,0,0,0-3.769-1.111c-.943-.245-1.829-.494-1.971-.555a2.968,2.968,0,0,0-.514-.155c-.141-.025-.565-.126-.942-.223-.955-.247-4.388-.811-6.94-1.14A165.737,165.737,0,0,0,143.671.294M95.012,23.047c.338,1.245.762,2.726.942,3.291s.724,2.531,1.208,4.369,1.3,4.922,1.817,6.854,1.355,5.094,1.865,7.025c1.977,7.493,3.2,11.752,3.627,12.595,1,1.992,1.919,1.732,4.749-1.345a21.41,21.41,0,0,1,1.562-1.611c.022.024-.143.853-.367,1.843-1.093,4.834-.77,9.7.874,13.169.328.693.6,1.291.6,1.328,0,.4-1.14-.622-5.077-4.552l-4.627-4.62-.736-3.648c-.686-3.4-1.295-6.457-3.081-15.471-.392-1.979-.982-4.871-1.312-6.426s-.864-4.215-1.188-5.911-.9-4.576-1.28-6.4c-1-4.78-.8-5.008.428-.492m-10.8,45.775c1.194.5,1.044,1.4-.55,3.279a19.1,19.1,0,0,1-6.283,5.063c-.766.377-1.539.767-1.719.865-3.1,1.7-10.2,2.164-14.823.976-1.93-.5-2.556-1.7-1.348-2.6l.465-.346,1.505.379c8.158,2.052,16.633-.806,21.013-7.086a1.985,1.985,0,0,1,1.1-.762,4.49,4.49,0,0,1,.637.235m-63.683,8.66c2.416,2.584,7.565,3.026,11.972,1.028,1.708-.774,2.619-.53,2.619.7,0,1.117-.466,1.446-3.541,2.5-4.868,1.676-11.9.09-13.52-3.051-.972-1.881.955-2.8,2.47-1.183m101.8,2.428c-4.045,8.059-11.46,16.532-18.495,21.134-10.358,6.776-25.771,12.1-34.374,11.874l-1.858-.048,3.337-.841c18.954-4.773,37.565-16.625,50.936-32.439,1.3-1.533,1.361-1.487.454.32M52.87,87.618c1.262,1.263,1.028,2.577-.749,4.2-6.891,6.3-6.656,6.232-9.723,2.98-.752-.8-1.707-1.8-2.123-2.228-1.319-1.358-1.607-2.332-1.053-3.551.457-1.007.906-1.17,4.122-1.5,7.832-.8,8.643-.789,9.526.094" transform="translate(0 0)" fill="#d3f3fb" fill-rule="evenodd"/>
      <path id="path1" d="M92.83,110.56c-5.374,6.61-13.356,9.041-21.7,6.611-.675-.2-.753-.183-1.157.2-.883.83-.487,1.587,1.069,2.043a21.864,21.864,0,0,0,23.352-7.28c1.6-2.052.072-3.581-1.564-1.569m-64.071,7.325c-1.23,1.231,1.861,3.9,5.432,4.7,4.3.954,11.19-.62,11.19-2.555,0-1.188-.734-1.346-2.455-.529-4.063,1.928-9.546,1.429-12.132-1.1-.956-.936-1.476-1.066-2.033-.508m27.483,10.358c-5.556.42-5.834.492-6.451,1.682-.649,1.25-.416,1.655,3.028,5.276,3.027,3.183,2.977,3.19,7.567-.951,3.638-3.281,3.873-3.665,3.15-5.158a2.321,2.321,0,0,0-2.009-1.248l-5.285.4" transform="translate(-10.432 -40.741)" fill="#062f95" fill-rule="evenodd"/>
      <path id="path2" d="M94.813,36.95c-.006.1.3,1.716.68,3.6s1.072,5.349,1.539,7.7.968,4.823,1.115,5.483.528,2.548.845,4.2c.788,4.088,2.746,13.79,3.162,15.667l.339,1.53,4.337,4.349c5.112,5.126,5.136,5.145,4.253,3.256-1.718-3.678-2-10.485-.583-14.094.074-.188-.507.369-1.291,1.24-3.007,3.338-4.447,3.148-5.493-.726-.2-.754-.563-2-.8-2.769s-.771-2.7-1.192-4.284c-5.639-21.26-6.877-25.761-6.914-25.155m52.937,7.167C132.369,52.542,125.4,70,130.039,88.478a41.629,41.629,0,0,0,10.311,18.356l1.03,1.008.781-.378a1.75,1.75,0,0,1,1-.252c.12.07.158.06.085-.021-.159-.175,1.9-1.148,2.128-1.007.085.053.135-.005.109-.13s.05-.208.168-.184.214-.039.214-.139.077-.134.171-.075.171.033.171-.057.311-.287.691-.439,1.308-.612,2.062-1.022l1.372-.745-1.762-1.252c-11.508-8.174-16.895-19.389-15.306-31.866,1.326-10.413,7.735-21.231,15.858-26.769.733-.5.315-.313-1.372.61M7.532,50.9c-.08.383-.054.631.075.71s.159.367.085.826c-.069.433-.046.7.061.7s.173.235.173.524c0,.372-.062.488-.214.4-.117-.069-.079.029.086.217a1.628,1.628,0,0,1,.3.929c0,.442-.043.523-.169.33-.091-.141-.167-.186-.168-.1a.916.916,0,0,0,.229.428,34.073,34.073,0,0,1,.775,5.778.887.887,0,0,0,.068.4,9.966,9.966,0,0,1,.3,2.38,1.552,1.552,0,0,0,.186.812,1.15,1.15,0,0,1,.08.833c-.077.412-.049.6.09.6s.17.233.1.771c-.071.515-.043.771.085.771s.158.241.1.685c-.055.406-.021.686.08.686s.146.327.111.771c-.034.425,0,.771.082.771s.126.29.107.642a3.142,3.142,0,0,0,.057.9c.122.336.675,5.369.613,5.579a1.043,1.043,0,0,0,.165.544,1.29,1.29,0,0,1,.1.816.848.848,0,0,0,.1.69,1.016,1.016,0,0,1,.1.793,1.061,1.061,0,0,0,.085.771,1.046,1.046,0,0,1,.092.74c-.058.289-.022.556.084.622s.144.423.072.964c-.077.573-.055.814.066.739s.18.1.18.424c0,.364-.064.495-.2.41s-.164-.028-.086.175a1.89,1.89,0,0,1,.115.381c0,.045.077.034.171-.024s.18.188.192.632c.055,2.011.149,1.966,1.505-.718a137.945,137.945,0,0,1,7.927-14.021l.636-.913-1.705-.853C14.68,67.545,9.5,59.487,7.724,50.652c-.05-.249-.1-.183-.192.246m211.239,22.03c.2,5.683-.611,12.8-1.889,16.559-.231.68-.421,1.258-.421,1.284a2.126,2.126,0,0,0,.6.16c.329.062.556.18.5.263s.019.107.156.055a7.32,7.32,0,0,1,2.7,1c.4.615.751-3.186.737-8.012-.017-5.55-.782-9.91-2.36-13.451a8.78,8.78,0,0,0-.029,2.142M121.275,94.3a120.074,120.074,0,0,1-16.3,15.126C95.386,116.834,82.11,123.283,71.07,125.9c-1.037.246-2.116.507-2.4.583l-.514.136.6.014c4.635.108,13.709-2,20.835-4.834,14.31-5.7,22.962-12.618,30.348-24.279a43.677,43.677,0,0,0,2.593-4.621c-.032,0-.6.635-1.258,1.4M23.941,125.261c.015,2.925-2.611,5.985-7.575,8.827l-2.141,1.228c-5.784,3.322-13.83.5-11.3-3.964.36-.636.362-.651.024-.249-.2.236-.511.607-.7.825-3.07,3.6-1.735,8.745,2.591,9.981a4.364,4.364,0,0,1,.994.39,20.676,20.676,0,0,0,5.432.143,49.292,49.292,0,0,0,5.14-1.4c.566-.207,1.2-.416,1.414-.465s.386-.141.386-.205.29-.219.643-.344c1.457-.513,4.247-1.624,4.326-1.723a11.214,11.214,0,0,1,1.48-.651c.767-.3,2.136-.894,3.043-1.32s1.7-.776,1.754-.776a14.994,14.994,0,0,0,2.291-1.038,8.314,8.314,0,0,1,1.285-.583c.66-.261,1.807-.776,2.548-1.145s2.015-.944,2.827-1.278a19.468,19.468,0,0,0,1.831-.834c.193-.124,1.119-.551,2.056-.95,2.972-1.261,3.235-1.531,1.5-1.537-.936,0-5.923-.642-7.295-.934a82.727,82.727,0,0,1-9.558-2.469l-3.006-1.006.008,1.478" transform="translate(-0.052 -13.69)" fill="#8cd3fb" fill-rule="evenodd"/>
      <path id="path3" d="M95.473,34.219c.051.212.146.681.211,1.041.068.377.183.592.269.5a3.674,3.674,0,0,0-.475-1.931c-.054,0-.056.173-.005.385M97.84,42.23a1.884,1.884,0,0,0,.147.6c.093.216.148.248.148.086a1.887,1.887,0,0,0-.148-.6c-.093-.216-.147-.248-.147-.086m51.509.364a2.129,2.129,0,0,0-.642.418c0,.048.149.008.332-.09.485-.259.6-.217.332.122-.213.271-.207.278.063.067.164-.129.247-.315.186-.414s-.006-.141.168-.074c.154.059.322.039.374-.045.192-.311-.188-.3-.811.016m-3.73,3.706-1.453,1.5,1.5-1.453c.825-.8,1.5-1.474,1.5-1.5,0-.124-.2.06-1.546,1.453m-2.224.229-.771.7.814-.634c.713-.556.925-.766.771-.764a10.473,10.473,0,0,0-.814.7M8.206,47.938c0,.373.063.609.157.551s.126.246.063.8c-.08.725-.057.865.117.7.3-.277.263-1.38-.063-2.11l-.268-.6-.006.653m91.519,1.318a1.9,1.9,0,0,0,.147.6c.093.216.148.248.148.086a1.883,1.883,0,0,0-.148-.6c-.092-.216-.147-.248-.147-.086m39.29,1.414-.5.557.557-.5a4.276,4.276,0,0,0,.557-.557c0-.133-.141-.016-.61.5m-130.44.3c.022.283.1.514.175.514s.134-.231.134-.514-.078-.514-.174-.514-.156.231-.135.514m.138,1.446a.713.713,0,0,0,.171.524c.1.062.171-.112.171-.418,0-.288-.077-.524-.171-.524s-.171.188-.171.418m.174,1.242a1.668,1.668,0,0,0,.168.739c.124.192.167.1.169-.376a1.167,1.167,0,0,0-.169-.739c-.1-.061-.17.1-.168.376m127.311.567c-.2.283-.328.514-.28.514a1.965,1.965,0,0,0,.452-.514c.2-.283.327-.514.28-.514a1.973,1.973,0,0,0-.452.514M9.274,55.6c0,.424.034.6.075.386a2.444,2.444,0,0,0,0-.771c-.041-.212-.075-.039-.075.386M134.4,57.137c-.146.283-.227.514-.18.514a1.477,1.477,0,0,0,.352-.514c.146-.283.227-.514.18-.514a1.478,1.478,0,0,0-.352.514M9.613,58.423c0,.377.037.511.078.3a1.864,1.864,0,0,0,0-.685c-.043-.164-.076.01-.074.387m.168,1.628c0,.33.035.465.079.3a1.42,1.42,0,0,0,0-.6c-.043-.165-.079-.03-.079.3m.178,1.542c0,.425.033.6.074.386a2.44,2.44,0,0,0,0-.771c-.041-.212-.074-.039-.074.385m.141,1.457c.005.6.026.635.166.284a.792.792,0,0,0-.006-.685c-.127-.217-.165-.122-.161.4m.155,1.446c0,.288.077.524.171.524s.171-.188.171-.418a.714.714,0,0,0-.171-.524c-.1-.062-.171.112-.171.418m6.847,1.6a9.618,9.618,0,0,0,.814.814c.129,0-.008-.154-.764-.864l-.815-.764.764.814m-6.676-.043c0,.283.077.514.171.514s.171-.231.171-.514-.077-.514-.171-.514-.171.231-.171.514m.174,1.328a1.226,1.226,0,0,0,.169.557c.126.2.166.122.168-.3,0-.306-.074-.556-.168-.556s-.17.135-.169.3m100.391.519-.41.466.453-.4c.337-.3.475-.34.543-.171.06.15.095.158.1.023.027-.41-.29-.373-.69.081M10.77,69.036a1.069,1.069,0,0,0,.171.7c.1.064.171-.17.171-.59,0-.382-.077-.7-.171-.7s-.171.265-.171.589m208.88.482a1.634,1.634,0,0,0,.063.642c.149,0,.215-.851.082-1.06-.091-.143-.144.008-.145.418m-110.362.257-.591.642.643-.59c.6-.549.721-.695.59-.695a5.777,5.777,0,0,0-.642.642m-98.24.686c.161.673.236.7.236.071,0-.3-.078-.543-.175-.543s-.129.192-.062.472m209.225.043c.2.772.6,1.714.481,1.132a5.5,5.5,0,0,0-.344-1.028c-.185-.4-.219-.426-.138-.1m-86.086.6c0,.377.036.511.078.3a1.864,1.864,0,0,0,0-.685c-.043-.164-.076.01-.074.387m-122.862.942c0,.33.035.465.078.3a1.4,1.4,0,0,0,0-.6c-.043-.165-.078-.03-.078.3M219.878,73.93c0,.8.03,1.129.065.728a9.715,9.715,0,0,0,0-1.456c-.036-.4-.065-.073-.065.728m-109.15.257c0,.848.028,1.217.065.819a11.167,11.167,0,0,0,0-1.542c-.035-.451-.065-.126-.065.723M11.5,73.673c0,.377.037.511.078.3a1.882,1.882,0,0,0,0-.686c-.043-.163-.077.011-.075.387m95.742,4.113c1.741,1.743,3.205,3.17,3.252,3.17s-1.34-1.427-3.081-3.17-3.205-3.17-3.252-3.17,1.34,1.427,3.081,3.17m26.946-2.228c0,.377.036.511.078.3a1.864,1.864,0,0,0,0-.685c-.043-.164-.076.011-.074.387M11.841,76.586c0,.377.037.511.078.3a1.864,1.864,0,0,0,0-.685c-.043-.164-.076.011-.074.387m.145,1.542c.005.6.029.638.184.317a.664.664,0,0,0-.006-.685c-.153-.264-.183-.2-.178.368m207.7,0c0,.377.037.511.079.3a1.878,1.878,0,0,0,0-.685c-.043-.164-.077.01-.075.387m2.57,1.37c0,.377.037.511.078.3a1.869,1.869,0,0,0,0-.686c-.043-.164-.077.011-.075.387M12.14,79.67c0,.37.069.577.171.514a.856.856,0,0,0,0-1.028c-.1-.063-.171.144-.171.514m99.233-.257a2.444,2.444,0,0,0,.23.771c.3.662.308.354.006-.428-.127-.33-.234-.484-.236-.343m-99.062,1.8c0,.37.07.577.171.514a.856.856,0,0,0,0-1.028c-.1-.063-.171.144-.171.514m210.145,2.142c0,1.367.026,1.925.059,1.242s.033-1.8,0-2.485-.059-.124-.059,1.243M16.338,81.812c-.146.283-.227.514-.18.514a1.472,1.472,0,0,0,.351-.514c.146-.283.227-.514.18-.514a1.484,1.484,0,0,0-.352.514m-3.855.761c0,.335.077.61.171.61s.171-.227.171-.5a.881.881,0,0,0-.171-.61c-.1-.063-.171.141-.171.5m.266,1.338a.857.857,0,0,0,0,.6c.124.286.134.286.2,0,.121-.506-.038-.977-.2-.6m.173,1.313a.832.832,0,0,0,.065.557c.151.375.161.365.171-.156.011-.563-.061-.685-.236-.4m123.632.273a1.883,1.883,0,0,0,.245.6c.134.235.245.352.245.257a1.9,1.9,0,0,0-.245-.6c-.135-.236-.245-.352-.245-.257m85.71,1.628c0,.425.033.6.074.386a2.444,2.444,0,0,0,0-.771c-.041-.212-.074-.038-.074.386M13.194,86.986c-.028.5.22.776.417.457.075-.121.05-.154-.062-.085s-.215-.073-.257-.359l-.072-.474-.026.462m205.338,3.053a7.9,7.9,0,0,0,1.2.327c.275-.016-.983-.446-1.634-.56-.327-.057-.131.048.435.233m1.456.479c0,.143.32.3,1.671.841.117.047.214,0,.214-.114s-.077-.152-.171-.094-.171.04-.171-.041-.289-.259-.642-.4-.7-.274-.771-.306-.129.018-.129.109M123.518,92.1c0,.1-.065.141-.145.092s-.369.158-.642.461l-.5.551.541-.488a1.818,1.818,0,0,1,.681-.458.2.2,0,0,0,.2-.155c.033-.1.016-.184-.039-.184s-.1.082-.1.181m-2.153,2.089-.5.557.557-.5a4.3,4.3,0,0,0,.556-.557c0-.133-.141-.016-.61.5m21.172.557a3.767,3.767,0,0,0,.667.6c.048,0-.176-.27-.5-.6a3.745,3.745,0,0,0-.667-.6c-.047,0,.176.27.5.6m-25.362,3.813-2.654,2.7,2.7-2.654c1.484-1.46,2.7-2.674,2.7-2.7,0-.122-.278.147-2.744,2.654m28.1-1.071a3.743,3.743,0,0,0,.667.6c.047,0-.176-.27-.5-.6a3.744,3.744,0,0,0-.667-.6c-.047,0,.176.27.5.6m-32.139,4.926-.5.557.557-.5a4.3,4.3,0,0,0,.556-.557c0-.133-.141-.016-.61.5m2.143,1.8-.59.642.642-.59c.6-.549.722-.695.591-.695a5.813,5.813,0,0,0-.643.642m32.438-.09c-.212.1-.386.254-.386.337q0,.215.857-.367c.336-.228.022-.209-.472.03m-.728.476c0,.094-.058.156-.129.136a2.637,2.637,0,0,0-.814.335c-.873.471-.706.489.321.035.653-.289,1.059-.678.707-.678-.047,0-.085.077-.085.171m-5.575,1.157c1.191,1.247,1.225,1.253,2.576.474,1.283-.739,1.125-.769-.36-.068l-1.131.535-1.054-1.006-1.054-1.005,1.022,1.071M112.378,107.3l-2.14,2.184,2.185-2.139c1.2-1.177,2.185-2.16,2.185-2.185,0-.123-.243.11-2.23,2.14M93.661,116.18c-.641.348-.6.492.043.159a1.528,1.528,0,0,0,.514-.347c0-.111-.018-.1-.556.188m4.8.942a2.233,2.233,0,0,0-.642.424c0,.047.308-.072.686-.264a2.486,2.486,0,0,0,.685-.432c0-.112,0-.111-.728.273m-18.034,5.049c-.428.207-.443.23-.086.143.486-.119,1.032-.4.771-.393a2.71,2.71,0,0,0-.685.25m-55.383,2.05c0,.471.035.644.073.383a3.072,3.072,0,0,0,0-.857c-.041-.211-.073,0-.072.474m46.429,1.232a1.4,1.4,0,0,0,.6,0c.165-.043.03-.079-.3-.079s-.465.036-.3.079M3.616,131.932c0,.377.037.511.078.3a1.879,1.879,0,0,0,0-.685c-.043-.164-.077.011-.075.387m15.292.015-.514.441.556-.369a2.324,2.324,0,0,0,.557-.442c0-.129-.072-.084-.6.369m-9.036,3.79a1.879,1.879,0,0,0,.685,0c.164-.043-.011-.077-.387-.075s-.511.037-.3.078" transform="translate(-1.181 -12.55)" fill="#a2dcfc" fill-rule="evenodd"/>
      <path id="path4" d="M97.917,116.145l-.677.728.728-.677c.678-.63.807-.779.678-.779a7.558,7.558,0,0,0-.728.729m-16.484,4.024a12.569,12.569,0,0,0,1.628,0c.448-.036.082-.065-.814-.065s-1.262.029-.814.065m-39.411,5.137a3.758,3.758,0,0,0,.943,0c.259-.039.047-.072-.471-.072s-.73.033-.472.072m23.992,4.627a3.08,3.08,0,0,0,.857,0c.21-.041,0-.073-.474-.072s-.644.035-.383.073m-2.142.17a1.865,1.865,0,0,0,.685,0c.164-.043-.01-.077-.387-.075s-.511.037-.3.078m5.054,2.192c0,.377.036.511.078.3a1.864,1.864,0,0,0,0-.685c-.043-.164-.076.011-.074.387m-13.323,3a4.772,4.772,0,0,0,.755.685,2.975,2.975,0,0,0-.583-.685,4.782,4.782,0,0,0-.755-.686,2.984,2.984,0,0,0,.584.686m11.3-.129-.5.557.557-.5c.519-.469.636-.611.5-.611a4.275,4.275,0,0,0-.557.557m-8.3,3.267a4.269,4.269,0,0,0,.556.556l.557.5-.5-.557c-.469-.519-.61-.636-.61-.5" transform="translate(-15.427 -42.898)" fill="#a4c4e4" fill-rule="evenodd"/>
      <path id="path5" d="M95.275,111.1c0,.33.035.465.079.3a1.42,1.42,0,0,0,0-.6c-.043-.165-.079-.03-.079.3m-1.849,2.785-.5.557.557-.5c.519-.469.636-.611.5-.611a4.25,4.25,0,0,0-.556.557m-64.5,6.18a4.276,4.276,0,0,0,.557.557l.557.5-.5-.557c-.469-.519-.61-.636-.61-.5m47.765.757a9.89,9.89,0,0,0,1.456,0c.4-.036.073-.066-.728-.066s-1.129.03-.728.066M36.933,123.4a9.888,9.888,0,0,0,1.456,0c.4-.036.073-.066-.728-.066s-1.129.03-.728.066m13.58,9.727a3.721,3.721,0,0,0,.667.6c.047,0-.176-.27-.5-.6a3.716,3.716,0,0,0-.667-.6c-.047,0,.176.269.5.6m11.041.642-.5.557.557-.5c.519-.469.636-.61.5-.61a4.277,4.277,0,0,0-.557.557m-1.713,1.542-.5.556.557-.5c.519-.469.636-.61.5-.61a4.293,4.293,0,0,0-.556.557m-6.929.385a3.739,3.739,0,0,0,.667.6c.047,0-.176-.269-.5-.6a3.726,3.726,0,0,0-.667-.6c-.047,0,.176.269.5.6" transform="translate(-10.595 -41.157)" fill="#6c8ccc" fill-rule="evenodd"/>
      <path id="path6" d="M95.184,31.812c.012.477.259,1.554.3,1.285.013-.094.1-.056.189.085.293.454.19-.168-.171-1.028-.246-.585-.321-.668-.313-.342m2.05,6.683a1.888,1.888,0,0,0,.148.6c.093.216.147.247.147.085a1.885,1.885,0,0,0-.147-.6c-.093-.216-.148-.247-.148-.085m55.022,1.827c-.117.048-.214.15-.214.227,0,.175.657.016.784-.19.1-.16-.214-.181-.57-.037M150.2,41.767a3.6,3.6,0,0,0-.728.6,2.647,2.647,0,0,0,.771-.446,4.147,4.147,0,0,0,.771-.608c0-.118-.033-.1-.814.453m-3.077,2.511c-1.048,1.016-1.1,1.089-.239.312,1.678-1.508,1.816-1.64,1.707-1.64a15.282,15.282,0,0,0-1.468,1.328m-139,1.584a3.614,3.614,0,0,0,.341.943c.184.377.294.544.244.372a2.7,2.7,0,0,1-.089-.61,1.279,1.279,0,0,0-.252-.629c-.188-.248-.25-.268-.244-.076m136.455.9-.677.728.728-.677c.678-.63.807-.779.678-.779a7.648,7.648,0,0,0-.728.728m-4.365,1.8-1.625,1.67,1.671-1.625c.919-.893,1.67-1.645,1.67-1.67,0-.124-.208.073-1.717,1.625m-1.847,7.329a2.231,2.231,0,0,0-.293.767,4.359,4.359,0,0,0,.731-1.47c-.036-.036-.233.28-.438.7M11.549,56.4a2.975,2.975,0,0,0,.328.771c.18.33.328.523.328.428a2.99,2.99,0,0,0-.328-.771c-.181-.33-.328-.522-.328-.428m121.33,2.92c-.287.63-.232.764.078.192.144-.268.231-.518.192-.558s-.161.126-.271.366m-29.819.935a1.887,1.887,0,0,0,.148.6c.092.216.147.247.147.085a1.885,1.885,0,0,0-.147-.6c-.093-.216-.148-.247-.148-.085m33.237.533a1.36,1.36,0,0,0-.125.617c.036.036.153-.181.259-.484a1.37,1.37,0,0,0,.125-.617c-.036-.036-.153.181-.259.484m-4.968,2.739a2.934,2.934,0,0,0-.179.737c.006.1.122-.113.257-.482a1.914,1.914,0,0,0,.179-.737c-.036-.037-.153.18-.257.482M17.189,65.14a11.66,11.66,0,0,0,1.19,1.114,8.812,8.812,0,0,0-1.019-1.114,11.8,11.8,0,0,0-1.189-1.113,8.806,8.806,0,0,0,1.018,1.113m84.682.171a3.106,3.106,0,0,0,.138.771c.109.339.137.357.137.085a3.107,3.107,0,0,0-.137-.771c-.109-.339-.138-.357-.138-.085m9.465,1.331-.674.725.683-.6c.376-.33.717-.619.757-.642s.036-.08-.009-.126-.386.244-.757.642m-1.793,1.968-1.108,1.157,1.156-1.108c.636-.61,1.157-1.13,1.157-1.157,0-.126-.175.035-1.2,1.108m25.062-.471c0,.33.035.465.079.3a1.42,1.42,0,0,0,0-.6c-.043-.165-.079-.03-.079.3m-.16,1.542c0,.518.033.73.072.471a3.759,3.759,0,0,0,0-.943c-.039-.259-.072-.047-.072.472M23.277,69.174a.493.493,0,0,1-.119.471c-.206.264-.2.269.071.058.33-.259.405-.708.119-.708-.1,0-.132.08-.071.179M219.788,70.88c0,.895.029,1.262.064.814a12.575,12.575,0,0,0,0-1.628c-.035-.448-.064-.082-.064.814m-108.659-.857c0,.33.035.465.078.3a1.4,1.4,0,0,0,0-.6c-.043-.165-.078-.03-.078.3m-.156,1.714c0,.612.031.863.069.557a5.414,5.414,0,0,0,0-1.114c-.038-.306-.069-.055-.069.557m23.311.771c0,.942.03,1.306.064.808a13.926,13.926,0,0,0,0-1.714c-.035-.445-.063-.037-.063.906M21.539,72.122c-.59,1-.629,1.086-.328.728.348-.414.647-.942.536-.942-.045,0-.139.1-.208.214m108.123,3.384c0,1.178.028,1.66.061,1.071s.033-1.553,0-2.142-.061-.107-.061,1.071m90.126-.343c0,.9.029,1.262.064.814a12.575,12.575,0,0,0,0-1.628c-.035-.448-.064-.082-.064.814m-108.816-.257c0,.565.033.776.071.468a4.6,4.6,0,0,0,0-1.028c-.039-.257-.07-.006-.069.56m23.473.428c0,.518.033.73.072.471a3.759,3.759,0,0,0,0-.943c-.039-.259-.072-.047-.072.472M19.5,75.507c-.146.283-.227.514-.18.514a1.478,1.478,0,0,0,.352-.514c.146-.283.227-.514.18-.514a1.468,1.468,0,0,0-.352.514m202.482-.257a5.963,5.963,0,0,0,.131,1.029c.119.576.141.6.141.171,0-.6-.257-1.726-.273-1.2M134.6,76.877c0,.33.035.465.079.3a1.42,1.42,0,0,0,0-.6c-.043-.165-.079-.03-.079.3m87.732.686c0,.33.035.465.078.3a1.4,1.4,0,0,0,0-.6c-.043-.165-.078-.03-.078.3M17.7,78.762c-.192.377-.311.685-.264.685a2.425,2.425,0,0,0,.435-.685c.192-.377.311-.686.264-.686a2.419,2.419,0,0,0-.435.686m204.813.6c0,.471.035.644.074.383a3.048,3.048,0,0,0,0-.857c-.041-.211-.073,0-.072.474m-110.663,2.1c.805.852,1.292,1.122,1.292.718,0-.1-.084-.129-.188-.065s-.585-.259-1.071-.718L111,80.561l.85.9m-96.035.9a3.848,3.848,0,0,0-.433,1.028,5.007,5.007,0,0,0,.6-1.028,3.883,3.883,0,0,0,.433-1.028,4.986,4.986,0,0,0-.6,1.028m66.387.557-.5.556.557-.5c.519-.469.636-.61.5-.61a4.278,4.278,0,0,0-.557.557M222.517,85.7c0,.472.035.644.074.383a3.048,3.048,0,0,0,0-.857c-.041-.21-.073,0-.072.474m-91.7.086a1.887,1.887,0,0,0,.148.6c.092.216.147.247.147.085a1.885,1.885,0,0,0-.147-.6c-.093-.216-.148-.247-.148-.085m91.521,1.8c0,.377.037.511.078.3a1.865,1.865,0,0,0,0-.685c-.043-.164-.077.01-.075.387m-83.993.342a6.489,6.489,0,0,0,.549.857c.256.269-.33-.817-.649-1.2-.156-.188-.112-.035.1.342m-15.188,3.384-.5.557.526-.474c.289-.261.59-.415.67-.343s.089.035.021-.083c-.163-.283-.137-.3-.713.342m9.7.728a1.9,1.9,0,0,0,.245.6c.135.236.245.351.245.257a1.883,1.883,0,0,0-.245-.6c-.134-.236-.245-.351-.245-.257m-11.159.9-.59.642.642-.59c.6-.55.721-.695.59-.695a5.909,5.909,0,0,0-.642.642m20.571.472a3.745,3.745,0,0,0,.667.6c.047,0-.176-.27-.5-.6a3.715,3.715,0,0,0-.667-.6c-.047,0,.176.269.5.6m-22.708,1.842L118.2,96.668l1.414-1.367c.777-.752,1.414-1.388,1.414-1.414,0-.125-.191.054-1.46,1.367m24.414,0a9.616,9.616,0,0,0,.814.814c.129,0-.008-.154-.764-.864l-.814-.764.764.814m-9.5.3a1.484,1.484,0,0,0,.352.514c.047,0-.034-.232-.18-.514a1.478,1.478,0,0,0-.352-.514c-.047,0,.034.231.18.514m-13.386.214c-.59,1-.628,1.086-.328.728.348-.414.648-.943.536-.943-.045,0-.138.1-.208.214m24.438.868a4.277,4.277,0,0,0,.557.557l.556.5-.5-.557c-.469-.519-.61-.636-.61-.5m-30.591,3.245-1.2,1.242,1.242-1.2c.683-.657,1.242-1.216,1.242-1.242,0-.126-.18.041-1.289,1.2m-66.352-.953a1.42,1.42,0,0,0,.6,0c.165-.043.03-.078-.3-.078s-.465.035-.3.078m-1.882.176a3.047,3.047,0,0,0,.857,0c.211-.04,0-.073-.474-.072s-.644.035-.383.074m66.171,2.661-.5.557.557-.5c.519-.469.636-.611.5-.611a4.249,4.249,0,0,0-.556.557m38.719-.412c.05.08-.3.327-.772.549a4.069,4.069,0,0,0-.953.551c-.05.081.382-.091.96-.383.849-.428,1.231-.862.761-.862-.047,0-.045.065,0,.145m-39.226,5.381-1.539,1.585,1.584-1.539c.872-.847,1.585-1.559,1.585-1.585,0-.124-.2.067-1.631,1.539m-7.879,1.771-.514.442.556-.369a2.318,2.318,0,0,0,.557-.443c0-.128-.073-.084-.6.369m1.714,3.427-.514.442.557-.369a2.318,2.318,0,0,0,.557-.443c0-.128-.073-.084-.6.369m-7.24.262c-.584.374-.773.625-.257.342.393-.216,1.009-.692.9-.7a3.36,3.36,0,0,0-.642.354m.771,3.59a2.214,2.214,0,0,0-.642.425c0,.046.308-.072.686-.264a2.5,2.5,0,0,0,.685-.432c0-.112,0-.112-.728.272m-3.384,1.7c-.519.274-.865.5-.771.5a5.861,5.861,0,0,0,1.113-.5c.519-.274.865-.5.771-.5a5.862,5.862,0,0,0-1.113.5m-8.4.686c-.33.18-.523.328-.428.328a2.989,2.989,0,0,0,.771-.328c.33-.181.522-.328.428-.328a2.967,2.967,0,0,0-.771.328m-1.542,3.341c-.33.127-.484.234-.342.236a2.441,2.441,0,0,0,.771-.23c.662-.3.354-.307-.428-.006m-61,.343c.782.3,1.09.3.428-.006a2.439,2.439,0,0,0-.771-.23c-.141,0,.013.109.343.236m54.747,1.456c-.436.188.014.188.6,0,.345-.11.361-.138.086-.142a2,2,0,0,0-.686.142m-7.967.428c-.425.123-.617.225-.429.227a4.333,4.333,0,0,0,1.029-.222c.887-.293.406-.3-.6-.005m-40.525.086a1.885,1.885,0,0,0,.6.147c.162,0,.131-.054-.085-.147a1.887,1.887,0,0,0-.6-.148c-.162,0-.131.055.085.148M7.678,125.97c-.47.424-1.3,1.1-1.844,1.5a4.752,4.752,0,0,0-1.414,1.539c-.569,1.088-.538,1.233.064.3.5-.772.95-1.218,2.944-2.891.609-.511,1.181-.993,1.271-1.071s.1-.141,0-.141a4.483,4.483,0,0,0-1.02.771m32.858-.311a1.4,1.4,0,0,0,.6,0c.165-.043.03-.078-.3-.078s-.465.035-.3.078m1.2.171a1.4,1.4,0,0,0,.6,0c.165-.043.03-.079-.3-.079s-.465.036-.3.079m1.459.175a1.865,1.865,0,0,0,.685,0c.164-.043-.011-.076-.387-.074s-.511.037-.3.078m1.711.171a2.443,2.443,0,0,0,.771,0c.212-.041.038-.074-.386-.074s-.6.033-.386.074m-21.108.693c-.371.474-.4.553-.112.3.344-.3.8-.944.664-.944a5.036,5.036,0,0,0-.551.642M3.831,131.752c-.009.4,1.12,1.631,1.779,1.942.29.137.381.151.2.032a5.366,5.366,0,0,1-1.748-1.756c-.137-.315-.228-.4-.232-.218m11.431,1.427c-.641.347-.6.492.043.159a1.541,1.541,0,0,0,.514-.347c0-.11-.019-.1-.557.188M9.008,134.74a1.4,1.4,0,0,0,.6,0c.165-.043.03-.078-.3-.078s-.465.035-.3.078" transform="translate(-1.261 -11.728)" fill="#b8e4fa" fill-rule="evenodd"/>
      <path id="path7" d="M127.6,113.878l-.591.643.642-.591a5.816,5.816,0,0,0,.643-.642c0-.131-.145-.008-.695.59" transform="translate(-47.084 -42.089)" fill="#7094cc" fill-rule="evenodd"/>
    </g>
  </g>
</svg>
